<svg xmlns="http://www.w3.org/2000/svg" viewBox="0 0 474.2627 474.2627"><defs><style>.cls-1{fill:#9f83bc;}.cls-2{fill:#534479;}.cls-3{fill:#463678;}.cls-4{fill:#6d56a4;}.cls-5{fill:#5b479b;}.cls-6{fill:#352868;}</style></defs><title>digii_logo_color</title><g id="Layer_2" data-name="Layer 2"><path class="cls-1" d="M237.708,277.8438c-.1928.0029-.3833.0147-.5766.0147s-.384-.0118-.5769-.0147a367.3579,367.3579,0,0,1-87.1922,9.3264c-17.24,31.1865-31.2309,68.9509-31.2309,109.3267a40,40,0,0,0,40,40c33.2627,0,45.9878-40.01,79-40.01s45.737,40.01,79,40.01a40,40,0,0,0,40-40c0-40.3758-13.9907-78.14-31.2312-109.3267A367.3751,367.3751,0,0,1,237.708,277.8438Z"/><path class="cls-2" d="M449.8365,204.9129c-16.6314-28.8064-57.6441-19.8213-74.15-48.4106s11.7815-59.6148-4.85-88.4214A40,40,0,0,0,316.1954,53.44c-34.9666,20.188-60.6761,51.1865-79.064,81.71a367.345,367.345,0,0,1,35.6909,80.7405A367.3444,367.3444,0,0,1,324.9,287.17c35.6284-.6626,75.3286-7.4282,110.2952-27.6162A40,40,0,0,0,449.8365,204.9129Z"/><path class="cls-3" d="M274.0872,220.1751a40.67,40.67,0,0,1-36.3792,57.6687A367.3751,367.3751,0,0,0,324.9,287.17a367.3444,367.3444,0,0,0-52.0779-71.28C273.2828,217.4107,273.7066,218.8472,274.0872,220.1751Z"/><path class="cls-4" d="M237.1314,135.15c-18.3882-30.5237-44.0974-61.5222-79.064-81.71a40,40,0,0,0-54.6411,14.6409c-16.6313,28.8066,11.6563,59.8318-4.85,88.4214s-57.5188,19.6042-74.15,48.4106A40,40,0,0,0,39.0674,259.554c34.9663,20.188,74.6665,26.9536,110.2949,27.6162a367.356,367.356,0,0,1,52.0782-71.28A367.345,367.345,0,0,1,237.1314,135.15Z"/><path class="cls-5" d="M236.5545,277.8438a40.67,40.67,0,0,1-36.3792-57.6685c.3806-1.3278.8047-2.7646,1.2652-4.2846a367.356,367.356,0,0,0-52.0782,71.28A367.3579,367.3579,0,0,0,236.5545,277.8438Z"/><path class="cls-6" d="M205.3536,211.7928A40.5965,40.5965,0,0,1,234.721,196.574c.0854-.0051.17-.0149.2551-.02q1.0708-.0561,2.1553-.0576t2.155.0576c.0857.0046.17.0144.2551.02a40.5971,40.5971,0,0,1,29.3677,15.219c1.1929,1.2244,2.5034,2.5943,3.9131,4.0977a367.345,367.345,0,0,0-35.6909-80.74,367.345,367.345,0,0,0-35.6909,80.7405C202.85,214.387,204.1607,213.0171,205.3536,211.7928Z"/><path class="cls-4" d="M234.721,196.574c.0857-.0051.17-.0149.2551-.02C234.8907,196.5591,234.8064,196.5689,234.721,196.574Z"/><path class="cls-4" d="M201.4405,215.8907c-.46,1.52-.8846,2.9568-1.2652,4.2846a40.6639,40.6639,0,0,1,5.1783-8.3825C204.1607,213.0171,202.85,214.387,201.4405,215.8907Z"/><path class="cls-4" d="M239.2864,196.5545c.0857.0046.17.0144.2551.02C239.4561,196.5689,239.3721,196.5591,239.2864,196.5545Z"/><path class="cls-4" d="M274.0872,220.1751c-.3806-1.3279-.8044-2.7644-1.2649-4.2844-1.41-1.5034-2.72-2.8733-3.9131-4.0977A40.6608,40.6608,0,0,1,274.0872,220.1751Z"/><path d="M236.5545,277.8438c.1929.0029.3835.0147.5769.0147s.3838-.0118.5766-.0147c-.1948-.0449-.3847-.09-.5766-.1345C236.94,277.7542,236.75,277.7989,236.5545,277.8438Z"/><path d="M271.7725,256.4969a39.8967,39.8967,0,0,1-26.0044,19.0569c-2.3589.6318-5.2656,1.3681-8.6367,2.1555.1919.0449.3818.09.5766.1345a40.67,40.67,0,0,0,36.3792-57.6687c.4492,1.5667.8445,2.9963,1.1865,4.2732A39.8951,39.8951,0,0,1,271.7725,256.4969Z"/><path d="M228.4947,275.5538a40.001,40.001,0,0,1-29.5059-51.1055c.342-1.2766.7373-2.7063,1.1865-4.273a40.67,40.67,0,0,0,36.3792,57.6685c.195-.0449.385-.09.5769-.1345C233.76,276.9219,230.8533,276.1856,228.4947,275.5538Z"/><path d="M234.9761,196.5545q1.07-.0567,2.1553-.0576Q236.0466,196.4969,234.9761,196.5545Z"/><path d="M234.721,196.574a40.5965,40.5965,0,0,0-29.3674,15.2188c.8107-.8323,1.5732-1.6052,2.2719-2.3037A39.8932,39.8932,0,0,1,234.721,196.574Z"/><path d="M237.1314,196.4969q1.0846,0,2.155.0576Q238.216,196.4984,237.1314,196.4969Z"/><path d="M266.637,209.4891c.6987.6987,1.4614,1.4716,2.2722,2.3039a40.5971,40.5971,0,0,0-29.3677-15.219A39.892,39.892,0,0,1,266.637,209.4891Z"/></g></svg>